HIERARCHY
ROOT Hips
{
	OFFSET 0.000000 0.000000 0.000000
	CHANNELS 6 Xposition Yposition Zposition Xrotation Yrotation Zrotation
	JOINT LeftUpLeg_virtual
	{
		OFFSET 0.000000 0.000000 0.000000
		CHANNELS 3 Xrotation Yrotation Zrotation
		JOINT LeftUpLeg
		{
			OFFSET 11.394100 -6.187798 -0.413800
			CHANNELS 3 Xrotation Yrotation Zrotation
			JOINT LeftLeg
			{
				OFFSET 0.430247 -32.302673 3.732800
				CHANNELS 3 Xrotation Yrotation Zrotation
				JOINT LeftFoot
				{
					OFFSET -0.430247 -48.264931 -6.423300
					CHANNELS 3 Xrotation Yrotation Zrotation
					JOINT LeftToeBase
					{
						OFFSET 4.230900 -16.068199 23.438400
						CHANNELS 3 Xrotation Yrotation Zrotation
						JOINT LeftToe_End
						{
							OFFSET 4.510700 0.695400 19.974600
							CHANNELS 3 Xrotation Yrotation Zrotation
							End Site
							{
								OFFSET 0 0 0
							}
						}
					}
				}
			}
		}
	}
	JOINT RightUpLeg_virtual
	{
		OFFSET 0.000000 0.000000 0.000000
		CHANNELS 3 Xrotation Yrotation Zrotation
		JOINT RightUpLeg
		{
			OFFSET -11.333700 -6.187798 -0.413800
			CHANNELS 3 Xrotation Yrotation Zrotation
			JOINT RightLeg
			{
				OFFSET -0.430392 -32.302628 3.733000
				CHANNELS 3 Xrotation Yrotation Zrotation
				JOINT RightFoot
				{
					OFFSET 0.430392 -48.264973 -6.423500
					CHANNELS 3 Xrotation Yrotation Zrotation
					JOINT RightToeBase
					{
						OFFSET -4.230900 -16.068199 23.438400
						CHANNELS 3 Xrotation Yrotation Zrotation
						JOINT RightToe_End
						{
							OFFSET -4.510700 0.695400 19.974600
							CHANNELS 3 Xrotation Yrotation Zrotation
							End Site
							{
								OFFSET 0 0 0
							}
						}
					}
				}
			}
		}
	}
	JOINT Spine_virtual
	{
		OFFSET 0.000000 0.000000 0.000000
		CHANNELS 3 Xrotation Yrotation Zrotation
		JOINT Spine
		{
			OFFSET -0.002400 12.777504 0.315300
			CHANNELS 3 Xrotation Yrotation Zrotation
			JOINT Spine1
			{
				OFFSET -0.002067 5.816869 0.032633
				CHANNELS 3 Xrotation Yrotation Zrotation
				JOINT Spine1_split
				{
					OFFSET -0.002067 5.816869 0.032633
					CHANNELS 3 Xrotation Yrotation Zrotation
					JOINT Spine2
					{
						OFFSET -0.002067 5.816869 0.032633
						CHANNELS 3 Xrotation Yrotation Zrotation
						JOINT Neck_virtual
						{
							OFFSET 0.000000 0.000000 0.000000
							CHANNELS 3 Xrotation Yrotation Zrotation
							JOINT Neck
							{
								OFFSET -0.003700 21.199493 -0.826900
								CHANNELS 3 Xrotation Yrotation Zrotation
								JOINT Head
								{
									OFFSET 0.000000 20.442200 4.834800
									CHANNELS 3 Xrotation Yrotation Zrotation
									JOINT HeadTop_End
									{
										OFFSET 0.000000 34.668396 4.968400
										CHANNELS 3 Xrotation Yrotation Zrotation
										End Site
										{
											OFFSET 0 0 0
										}
									}
								}
							}
						}
						JOINT LeftShoulder_virtual
						{
							OFFSET 0.000000 0.000000 0.000000
							CHANNELS 3 Xrotation Yrotation Zrotation
							JOINT LeftShoulder
							{
								OFFSET 3.288150 8.794197 -1.372250
								CHANNELS 3 Xrotation Yrotation Zrotation
								JOINT LeftShoulder_split
								{
									OFFSET 3.288150 8.794197 -1.372250
									CHANNELS 3 Xrotation Yrotation Zrotation
									JOINT LeftArm
									{
										OFFSET 11.953299 -2.279007 -0.146200
										CHANNELS 3 Xrotation Yrotation Zrotation
										JOINT LeftForeArm
										{
											OFFSET 18.448900 0.000000 0.000000
											CHANNELS 3 Xrotation Yrotation Zrotation
											JOINT LeftHand
											{
												OFFSET 29.527798 0.000000 0.000000
												CHANNELS 3 Xrotation Yrotation Zrotation
												End Site
												{
													OFFSET 0 0 0
												}
											}
										}
									}
								}
							}
						}
						JOINT RightShoulder_virtual
						{
							OFFSET 0.000000 0.000000 0.000000
							CHANNELS 3 Xrotation Yrotation Zrotation
							JOINT RightShoulder
							{
								OFFSET -3.249400 8.794197 -1.372250
								CHANNELS 3 Xrotation Yrotation Zrotation
								JOINT RightShoulder_split
								{
									OFFSET -3.249400 8.794197 -1.372250
									CHANNELS 3 Xrotation Yrotation Zrotation
									JOINT RightArm
									{
										OFFSET -11.953299 -2.279007 -0.146200
										CHANNELS 3 Xrotation Yrotation Zrotation
										JOINT RightForeArm
										{
											OFFSET -18.448900 0.000000 0.000000
											CHANNELS 3 Xrotation Yrotation Zrotation
											JOINT RightHand
											{
												OFFSET -29.527802 0.000000 0.000000
												CHANNELS 3 Xrotation Yrotation Zrotation
												End Site
												{
													OFFSET 0 0 0
												}
											}
										}
									}
								}
							}
						}
					}
				}
			}
		}
	}
}
MOTION
Frames: 10
Frame Time: 0.03333333
12.826641 95.440811 -2.102928 0.000000 0.000000 0.000000 2.706806 -44.612105 3.123536 -21.408494 13.564968 7.057190 35.687824 21.382628 1.783533 -5.672368 15.182448 -15.033443 -1.699560 -0.573879 -2.604877 0.000000 0.000000 0.000000 2.607384 -44.431323 3.361107 -28.919803 -36.405175 -20.023314 32.019613 -9.216966 -5.380807 -9.084347 -3.304453 9.036891 -8.848921 3.037095 6.749601 0.000000 0.000000 0.000000 4.013484 -42.194894 3.344955 10.874955 -7.202283 2.087229 2.955666 -2.122350 -1.956799 -0.253216 -0.149479 0.814176 0.000000 0.000000 0.000000 -7.768527 -3.937541 -0.802550 -9.557757 -4.970871 -4.967077 10.416561 -22.517126 8.072259 0.000000 0.000000 0.000000 -8.826443 -3.970745 -1.168692 -0.895886 2.436042 -6.661720 1.059250 -2.518145 1.555253 9.465743 5.275356 -58.843692 -0.892694 -46.296129 0.194691 0.000000 0.000000 0.000000 -8.949505 -4.336774 -1.172022 -1.038209 -1.199943 5.969261 -3.038567 -3.982880 -2.148453 7.603700 18.290401 71.630188 0.261870 49.723811 1.364450 0.000000 0.000000 0.000000 
12.472496 95.384186 -2.598881 0.000000 0.000000 0.000000 1.743454 -48.077999 2.845364 -20.213750 14.049073 7.594046 36.835077 22.186220 1.246605 -5.540264 15.895679 -15.010514 -1.646273 -0.195423 -3.334806 0.000000 0.000000 0.000000 1.851151 -47.865522 3.106228 -27.328891 -36.683758 -19.666107 30.459953 -10.096538 -5.462388 -9.535353 -4.630549 9.751179 -8.344694 3.245738 5.121275 0.000000 0.000000 0.000000 3.181030 -45.517853 3.098382 10.853452 -7.127481 2.013028 2.697593 -1.914833 -1.778185 -0.260004 -0.323836 0.908151 0.000000 0.000000 0.000000 -7.969098 -3.778199 -0.614469 -9.223936 -4.046930 -5.130858 10.734288 -20.726568 7.592806 0.000000 0.000000 0.000000 -9.060226 -3.771557 -0.998230 -0.827818 2.235374 -6.587168 1.043010 -2.925516 1.709611 8.946694 4.924119 -58.326264 -1.042542 -45.555272 0.166934 0.000000 0.000000 0.000000 -9.152915 -4.155355 -1.018717 -1.262700 -0.433634 5.869677 -3.028221 -3.973031 -2.256912 7.154969 16.943905 71.903287 0.144695 48.211403 1.449813 0.000000 0.000000 0.000000 
11.977059 95.268120 -3.190937 0.000000 0.000000 0.000000 0.717574 -51.337198 2.171880 -19.910860 14.767854 8.712333 38.366047 22.819903 0.690287 -4.886868 16.201748 -14.695128 -1.827507 0.103241 -4.350777 0.000000 0.000000 0.000000 0.786101 -50.881163 2.349093 -26.230481 -36.620701 -19.106524 28.864151 -10.497640 -5.465193 -9.554141 -5.189397 10.535859 -8.962009 3.451342 3.614402 0.000000 0.000000 0.000000 2.364979 -48.552639 2.590349 10.893122 -6.729776 1.911872 2.489659 -1.789437 -1.533285 -0.215318 -0.515721 0.983603 0.000000 0.000000 0.000000 -8.124214 -3.671071 -0.371004 -8.924929 -3.315192 -5.250532 10.982025 -19.252982 7.074912 0.000000 0.000000 0.000000 -9.227577 -3.650375 -0.755964 -0.782131 1.996504 -6.465393 1.049160 -3.145174 1.714162 8.254119 4.369351 -58.027293 -1.047808 -44.917872 0.270818 0.000000 0.000000 0.000000 -9.328280 -4.036954 -0.790930 -1.453990 0.171982 5.755573 -2.909396 -3.934441 -2.404880 6.599096 15.370069 72.073133 0.049457 46.203102 1.528675 0.000000 0.000000 0.000000 
11.384042 95.164253 -3.739223 0.000000 0.000000 0.000000 -0.327226 -54.166860 1.157591 -20.567334 15.558817 10.304979 39.865164 23.036439 0.348595 -3.587361 15.843467 -14.258981 -2.843814 0.296070 -5.300376 0.000000 0.000000 0.000000 -0.415326 -53.513361 1.189320 -25.330019 -36.227883 -18.287198 27.284302 -10.453710 -5.434895 -9.421723 -5.097038 11.469472 -10.377852 3.625208 2.391998 0.000000 0.000000 0.000000 1.647855 -51.295711 1.895289 10.973668 -6.076074 1.802924 2.332321 -1.753185 -1.229147 -0.103880 -0.778902 0.971043 0.000000 0.000000 0.000000 -8.224793 -3.630298 -0.074877 -8.674754 -2.769692 -5.352074 11.132530 -18.075008 6.557657 0.000000 0.000000 0.000000 -9.328792 -3.617243 -0.451180 -0.760971 1.712252 -6.337611 1.110992 -3.066880 1.641116 7.503759 3.562242 -57.856121 -0.977100 -44.381811 0.430890 0.000000 0.000000 0.000000 -9.475817 -3.996614 -0.484839 -1.603958 0.606354 5.627984 -2.707441 -3.738954 -2.587655 6.036464 13.617527 72.149529 0.008433 43.831499 1.577418 0.000000 0.000000 0.000000 
10.756248 95.138504 -4.220959 0.000000 0.000000 0.000000 -1.304400 -56.504471 -0.058042 -21.924695 16.224015 12.100927 40.774798 22.519861 0.431371 -1.982706 14.739383 -13.791359 -4.840237 0.379369 -5.881078 0.000000 0.000000 0.000000 -1.511251 -55.859848 -0.114696 -24.052079 -35.565341 -17.008201 25.758761 -10.418985 -5.379296 -9.698572 -4.899110 11.810183 -11.397396 3.703250 1.696931 0.000000 0.000000 0.000000 1.180028 -53.843699 1.204750 11.061586 -5.251846 1.678806 2.207311 -1.775037 -0.882704 0.013736 -1.047306 0.893168 0.000000 0.000000 0.000000 -8.294317 -3.637664 0.262336 -8.442752 -2.399186 -5.506017 11.209064 -17.171123 6.078525 0.000000 0.000000 0.000000 -9.370804 -3.654695 -0.103708 -0.767625 1.439879 -6.244685 1.227628 -2.641844 1.449370 6.790997 2.449342 -57.734742 -0.903873 -43.860849 0.575143 0.000000 0.000000 0.000000 -9.588326 -4.017984 -0.122785 -1.696984 0.877066 5.507626 -2.508024 -3.404514 -2.789445 5.561229 11.734809 72.160361 0.039888 41.218761 1.584139 0.000000 0.000000 0.000000 
10.078167 95.235420 -4.571522 0.000000 0.000000 0.000000 -1.942024 -58.372258 -1.152485 -23.744558 16.828124 13.831450 40.827971 21.412862 0.789741 -1.031882 13.092783 -12.792116 -6.794756 0.303026 -6.121689 0.000000 0.000000 0.000000 -2.457067 -57.956860 -1.368831 -22.231581 -34.559156 -15.320411 24.261500 -10.649813 -5.295294 -10.611215 -4.920227 11.204202 -11.088335 3.661503 1.592256 0.000000 0.000000 0.000000 1.023514 -56.216893 0.688616 11.127890 -4.334537 1.557684 2.099226 -1.823146 -0.525024 0.080397 -1.199160 0.818006 0.000000 0.000000 0.000000 -8.348047 -3.661780 0.610497 -8.213178 -2.172179 -5.747371 11.245907 -16.490411 5.671446 0.000000 0.000000 0.000000 -9.387559 -3.719260 0.259328 -0.801786 1.244948 -6.189104 1.451785 -1.974863 1.253437 6.285128 1.005652 -57.601929 -0.906046 -43.377835 0.640804 0.000000 0.000000 0.000000 -9.670336 -4.065711 0.262042 -1.739543 0.988140 5.381202 -2.343054 -2.938769 -2.986796 5.196537 9.787465 72.074369 0.116228 38.490995 1.555200 0.000000 0.000000 0.000000 
9.359915 95.463715 -4.825184 0.000000 0.000000 0.000000 -2.208666 -59.873213 -1.941039 -25.908663 17.226804 15.312768 40.307292 19.721563 1.215458 -0.654397 11.020625 -11.467303 -7.678744 0.052676 -6.044732 0.000000 0.000000 0.000000 -3.101731 -59.975399 -2.321243 -20.160746 -32.995804 -13.458523 22.898300 -11.072211 -5.203061 -11.814893 -5.251843 10.076825 -10.099947 3.493669 1.968652 0.000000 0.000000 0.000000 1.224424 -58.453811 0.488860 11.186419 -3.383457 1.441637 1.999312 -1.832556 -0.191731 0.082862 -1.291031 0.699298 0.000000 0.000000 0.000000 -8.411800 -3.646780 0.937233 -7.985681 -2.053650 -6.121159 11.280970 -15.975982 5.358665 0.000000 0.000000 0.000000 -9.397645 -3.748222 0.603093 -0.861935 1.156150 -6.173657 1.655091 -1.199029 1.032858 6.020882 -0.721890 -57.447949 -1.014054 -42.928104 0.607480 0.000000 0.000000 0.000000 -9.729914 -4.076454 0.632294 -1.736046 0.980227 5.254036 -2.261908 -2.488447 -3.145103 4.950001 7.888335 71.840100 0.213024 35.799569 1.505017 0.000000 0.000000 0.000000 
8.599477 95.780327 -4.976501 0.000000 0.000000 0.000000 -2.050302 -61.373184 -2.281496 -28.390755 17.254502 16.506820 39.856561 17.408035 1.453143 -0.141531 8.674333 -10.200315 -7.278157 -0.346442 -5.620217 0.000000 0.000000 0.000000 -3.456988 -62.032024 -2.883728 -18.211895 -30.848064 -11.730732 21.788399 -11.462249 -5.132186 -12.590919 -5.766705 9.162022 -9.316907 3.255784 2.546366 0.000000 0.000000 0.000000 1.657547 -60.624424 0.624542 11.256450 -2.442401 1.328244 1.910908 -1.750208 0.082415 0.078629 -1.280393 0.633220 0.000000 0.000000 0.000000 -8.498825 -3.537409 1.211588 -7.746050 -2.002342 -6.616639 11.344251 -15.597604 5.162804 0.000000 0.000000 0.000000 -9.420873 -3.680550 0.896429 -0.943271 1.177738 -6.172331 1.823998 -0.402250 0.822280 6.008920 -2.591070 -57.318094 -1.210633 -42.573040 0.494436 0.000000 0.000000 0.000000 -9.773903 -3.990277 0.948981 -1.692235 0.886629 5.155030 -2.207975 -2.088570 -3.298579 4.794820 6.130391 71.445882 0.323625 33.275145 1.449593 0.000000 0.000000 0.000000 
7.819205 96.154083 -5.026054 0.000000 0.000000 0.000000 -1.599897 -63.180964 -2.176794 -31.009803 16.979801 17.339067 39.826024 14.848285 1.394068 0.792818 6.343128 -8.839553 -6.433537 -0.796946 -4.788257 0.000000 0.000000 0.000000 -3.547701 -64.204523 -3.044411 -16.584015 -28.174107 -10.268360 20.815893 -11.613157 -5.135416 -12.807639 -6.298216 8.841349 -8.728473 3.034796 3.035107 0.000000 0.000000 0.000000 2.146503 -62.771979 0.990796 11.381954 -1.543260 1.215434 1.851310 -1.523753 0.278040 0.078717 -1.223712 0.608484 0.000000 0.000000 0.000000 -8.591472 -3.291513 1.412616 -7.559566 -1.958243 -7.187183 11.425008 -15.257246 5.067917 0.000000 0.000000 0.000000 -9.455928 -3.469340 1.120281 -1.036841 1.268075 -6.151789 2.004595 0.282674 0.637484 6.227967 -4.468160 -57.273394 -1.441399 -42.343635 0.333250 0.000000 0.000000 0.000000 -9.817293 -3.758302 1.195888 -1.625048 0.744967 5.114703 -2.139183 -1.726735 -3.416733 4.704853 4.651192 70.925893 0.452006 30.967323 1.402315 0.000000 0.000000 0.000000 
7.044856 96.515137 -5.052711 0.000000 0.000000 0.000000 -1.047401 -65.428124 -1.750858 -33.248733 16.543606 17.613869 39.880016 12.488753 1.234702 1.894612 4.402452 -6.989566 -6.052606 -1.226569 -3.647380 0.000000 0.000000 0.000000 -3.316060 -66.499664 -2.770094 -15.258581 -25.150497 -9.033019 19.831647 -11.552211 -5.261221 -12.893323 -6.790672 8.960858 -8.023375 2.890085 3.328330 0.000000 0.000000 0.000000 2.547414 -64.971211 1.477136 11.563496 -0.714028 1.077989 1.821971 -1.126003 0.389900 0.126369 -1.162288 0.623542 0.000000 0.000000 0.000000 -8.675975 -2.882228 1.537694 -7.449844 -1.897067 -7.783387 11.489132 -14.898202 5.060809 0.000000 0.000000 0.000000 -9.493468 -3.083644 1.269883 -1.133472 1.382226 -6.086106 2.223601 0.827655 0.473182 6.549261 -6.250088 -57.378527 -1.624701 -42.119724 0.173308 0.000000 0.000000 0.000000 -9.857938 -3.357771 1.366196 -1.536747 0.586931 5.151956 -2.026195 -1.428769 -3.506592 4.706072 3.545776 70.358475 0.602615 28.881332 1.378126 0.000000 0.000000 0.000000 
